<?xml version="1.0" encoding="UTF-8" standalone="no"?>
<svg
   width="282"
   height="282"
   viewBox="0 0 282 282"
   fill="none"
   version="1.1"
   id="svg421"
   sodipodi:docname="lnvisualizer.svg"
   inkscape:version="1.1.2 (b8e25be833, 2022-02-05)"
   xmlns:inkscape="http://www.inkscape.org/namespaces/inkscape"
   xmlns:sodipodi="http://sodipodi.sourceforge.net/DTD/sodipodi-0.dtd"
   xmlns="http://www.w3.org/2000/svg"
   xmlns:svg="http://www.w3.org/2000/svg">
  <sodipodi:namedview
     id="namedview423"
     pagecolor="#ffffff"
     bordercolor="#666666"
     borderopacity="1.0"
     inkscape:pageshadow="2"
     inkscape:pageopacity="0.0"
     inkscape:pagecheckerboard="0"
     showgrid="false"
     inkscape:zoom="2.0837083"
     inkscape:cx="199.88403"
     inkscape:cy="158.3715"
     inkscape:window-width="2560"
     inkscape:window-height="1017"
     inkscape:window-x="-8"
     inkscape:window-y="-8"
     inkscape:window-maximized="1"
     inkscape:current-layer="svg421" />
  <circle
     cx="140.983"
     cy="141.00301"
     r="141"
     fill="#ffffff"
     id="circle408" />
  <circle
     cx="140.983"
     cy="141.00301"
     r="134"
     fill="#808080"
     id="circle410"
     style="fill:#212121;fill-opacity:1" />
  <path
     d="m 109.4946,135.23459 48.52128,-41.811062 c 2.11429,-1.354004 4.12947,0 2.83901,2.322827 l -15.4855,30.455025 h 27.61582 c 0,0 4.38756,0 0,3.61328 l -47.74698,42.06895 c -3.35517,2.839 -5.67799,1.29046 -3.35517,-3.0971 l 14.96931,-29.68055 H 109.4946 c 0,0 -4.38757,0 0,-3.87137 z"
     fill="#ffffff"
     id="path412"
     style="stroke-width:0.516183;fill:#fbc02d;fill-opacity:1" />
  <defs
     id="defs419">
    <clipPath
       id="clip0">
      <rect
         width="282"
         height="282"
         fill="black"
         id="rect416" />
    </clipPath>
  </defs>
  <g
     inkscape:groupmode="layer"
     id="layer2"
     inkscape:label="Layer 1">
    <path
       d="m 141.02032,56.487368 c -73.612291,0 -133.2847528,78.023612 -133.2847528,78.023612 0,0 59.6724618,78.02362 133.2847528,78.02362 73.61107,0 133.28473,-78.02362 133.28473,-78.02362 0,0 -59.67366,-78.023612 -133.28473,-78.023612 z m 0,132.039972 c -29.83143,0 -54.01636,-24.18492 -54.01636,-54.01636 0,-29.83143 24.18493,-54.016347 54.01636,-54.016347 29.83141,0 54.01633,24.184917 54.01633,54.016347 0,29.83144 -24.18492,54.01636 -54.01633,54.01636 z"
       id="path463"
       style="fill:#fbc02d;stroke-width:1.20036;fill-opacity:1"
       sodipodi:nodetypes="scscssssss" />
    <g
       id="g465"
       style="fill:#ffffff"
       transform="matrix(1.1871207,0,0,1.1871207,11.129069,3.8719933)">
</g>
    <g
       id="g467"
       style="fill:#ffffff"
       transform="matrix(1.1871207,0,0,1.1871207,11.129069,3.8719933)">
</g>
    <g
       id="g469"
       style="fill:#ffffff"
       transform="matrix(1.1871207,0,0,1.1871207,11.129069,3.8719933)">
</g>
    <g
       id="g471"
       style="fill:#ffffff"
       transform="matrix(1.1871207,0,0,1.1871207,11.129069,3.8719933)">
</g>
    <g
       id="g473"
       style="fill:#ffffff"
       transform="matrix(1.1871207,0,0,1.1871207,11.129069,3.8719933)">
</g>
    <g
       id="g475"
       style="fill:#ffffff"
       transform="matrix(1.1871207,0,0,1.1871207,11.129069,3.8719933)">
</g>
    <g
       id="g477"
       style="fill:#ffffff"
       transform="matrix(1.1871207,0,0,1.1871207,11.129069,3.8719933)">
</g>
    <g
       id="g479"
       style="fill:#ffffff"
       transform="matrix(1.1871207,0,0,1.1871207,11.129069,3.8719933)">
</g>
    <g
       id="g481"
       style="fill:#ffffff"
       transform="matrix(1.1871207,0,0,1.1871207,11.129069,3.8719933)">
</g>
    <g
       id="g483"
       style="fill:#ffffff"
       transform="matrix(1.1871207,0,0,1.1871207,11.129069,3.8719933)">
</g>
    <g
       id="g485"
       style="fill:#ffffff"
       transform="matrix(1.1871207,0,0,1.1871207,11.129069,3.8719933)">
</g>
    <g
       id="g487"
       style="fill:#ffffff"
       transform="matrix(1.1871207,0,0,1.1871207,11.129069,3.8719933)">
</g>
    <g
       id="g489"
       style="fill:#ffffff"
       transform="matrix(1.1871207,0,0,1.1871207,11.129069,3.8719933)">
</g>
    <g
       id="g491"
       style="fill:#ffffff"
       transform="matrix(1.1871207,0,0,1.1871207,11.129069,3.8719933)">
</g>
    <g
       id="g493"
       style="fill:#ffffff"
       transform="matrix(1.1871207,0,0,1.1871207,11.129069,3.8719933)">
</g>
  </g>
</svg>
